<svg xmlns="http://www.w3.org/2000/svg" width="48" height="48" viewBox="0 0 48 48"><rect width="100%" height="100%" fill="#007bff"/><path fill="#FFFFFF" d="M20.645 18.405h-7.06v4.41h5.57v2.28h-5.57v4.5h7.06v2.36h-10.03v-15.91h10.03zm16.74 5.6q0 1.75-.58 3.21t-1.64 2.52q-1.05 1.05-2.54 1.64-1.48.58-3.3.58h-6.06v-15.91h6.06q1.82 0 3.3.59 1.49.59 2.54 1.64 1.06 1.05 1.64 2.52.58 1.46.58 3.21m-3.03 0q0-1.31-.35-2.35-.34-1.04-1-1.76-.65-.72-1.58-1.11-.93-.38-2.1-.38h-3.09v11.2h3.09q1.17 0 2.1-.39.93-.38 1.58-1.1.66-.72 1-1.76.35-1.04.35-2.35"/></svg>