<svg xmlns="http://www.w3.org/2000/svg" width="128" height="128" viewBox="0 0 128 128"><rect width="100%" height="100%" fill="#007bff"/><path fill="#FFFFFF" d="M55.155 49.235h-18.62v11.63h14.67v6h-14.67v11.86h18.62v6.24h-26.45v-41.93h26.45zm44.14 14.76q0 4.61-1.54 8.47t-4.32 6.64q-2.79 2.79-6.7 4.32-3.92 1.54-8.7 1.54h-15.98v-41.93h15.98q4.78 0 8.7 1.55 3.91 1.55 6.7 4.32 2.78 2.77 4.32 6.62 1.54 3.86 1.54 8.47m-8.01 0q0-3.45-.91-6.19-.92-2.74-2.64-4.64-1.73-1.9-4.18-2.91-2.45-1.02-5.52-1.02h-8.15v29.52h8.15q3.07 0 5.52-1.01 2.45-1.02 4.18-2.92 1.72-1.9 2.64-4.64.91-2.74.91-6.19"/></svg>